<svg width="84" height="62" viewBox="0 0 84 62" fill="none" xmlns="http://www.w3.org/2000/svg">
<g clip-path="url(#clip0_203_1512)">
<path d="M84 4.09316V54.973L50.192 62V50.6561L0 60.9907V9.127L46.291 0V11.6032L84 4.09316Z" fill="#567FE9"/>
<g filter="url(#filter0_d_203_1512)">
<path d="M11.552 19.4311V20.6108C11.552 22.0319 10.8238 22.9904 9.4195 23.2701C8.01516 23.5497 7.28699 22.8836 7.28699 21.4625V16.8405C7.28699 15.4193 8.01516 14.4609 9.4195 14.1837C10.8238 13.9066 11.552 14.5727 11.552 15.9939V16.8557L10.1997 17.1252V16.1744C10.1997 15.5388 9.91361 15.3558 9.4585 15.4447C9.0034 15.5337 8.71733 15.8337 8.71733 16.4668V21.2642C8.71733 21.8997 9.0034 22.0701 9.4585 21.9785C9.91361 21.887 10.1997 21.6023 10.1997 20.9667V19.6981L11.552 19.4286V19.4311Z" fill="white"/>
<path d="M17.0523 21.6455L15.609 21.9328L15.3619 20.3718L13.6065 20.7227L13.3595 22.3828L12.0461 22.6447L13.5025 13.4745L15.596 13.0601L17.0523 21.6455ZM13.7886 19.482L15.1669 19.2074L14.4777 14.8549L13.7886 19.482Z" fill="white"/>
<path d="M20.7452 18.3353L21.7205 11.8447L23.7099 11.4507V20.3133L22.3576 20.5828V14.2244L21.3694 20.7785L20.0171 21.048L18.9508 14.9896V21.2616L17.7025 21.5107V12.638L19.692 12.2439L20.7452 18.3303V18.3353Z" fill="white"/>
<path d="M28.9866 12.5922V13.7439C28.9866 15.16 28.2844 16.0727 26.8541 16.3574L26.1779 16.4922V19.8201L24.7476 20.1048V11.2423L26.8541 10.8253C28.2844 10.5406 28.9866 11.1736 28.9866 12.5897V12.5922ZM26.1779 12.2261V15.2261L26.8541 15.0914C27.3092 14.9998 27.5562 14.7481 27.5562 14.1176V12.788C27.5562 12.155 27.3092 12.0024 26.8541 12.0914L26.1779 12.2261Z" fill="white"/>
<path d="M31.08 9.98888V16.8176C31.08 17.4506 31.3661 17.621 31.8212 17.5295C32.2763 17.4379 32.5624 17.1532 32.5624 16.5227V9.69651L33.9147 9.42957V16.1668C33.9147 17.5828 33.1865 18.5362 31.7822 18.8184C30.3778 19.1006 29.6497 18.4345 29.6497 17.0184V10.2762L31.08 9.99142V9.98888Z" fill="white"/>
<path d="M36.8145 8.75075C38.2058 8.47364 38.921 9.14227 38.921 10.5558V10.8329L37.5686 11.1024V10.7363C37.5686 10.1058 37.3086 9.91515 36.8535 10.0067C36.3984 10.0982 36.1383 10.388 36.1383 11.0211C36.1383 12.8414 38.934 12.6253 38.934 15.1498C38.934 16.5634 38.2058 17.5167 36.8015 17.7989C35.3971 18.0811 34.6689 17.4176 34.6689 16.0015V15.4574L36.0213 15.188V15.8185C36.0213 16.449 36.3073 16.6218 36.7624 16.5303C37.2176 16.4388 37.5036 16.154 37.5036 15.5235C37.5036 13.7032 34.708 13.9193 34.708 11.3922C34.708 9.97616 35.4231 9.02533 36.8145 8.75075Z" fill="white"/>
</g>
<g filter="url(#filter1_d_203_1512)">
<path d="M61.7439 49.3061V50.4756C61.7439 51.8841 61.0157 52.84 59.6114 53.1298C58.2071 53.4196 57.4789 52.7637 57.4789 51.3552V46.7714C57.4789 45.3604 58.2071 44.407 59.6114 44.1172C61.0157 43.8274 61.7439 44.4858 61.7439 45.8943V46.7485L60.3916 47.0256V46.0824C60.3916 45.4545 60.1055 45.274 59.6504 45.3655C59.1953 45.457 58.9092 45.757 58.9092 46.385V51.1417C58.9092 51.7722 59.1953 51.9374 59.6504 51.8434C60.1055 51.7493 60.3916 51.4646 60.3916 50.8341V49.5756L61.7439 49.2959V49.3061Z" fill="white"/>
<path d="M62.6125 43.6061L64.0429 43.3137V50.8594L66.3965 50.3738V51.6323L62.6125 52.4153V43.6112V43.6061Z" fill="white"/>
<path d="M68.3859 42.4214V49.207C68.3859 49.8349 68.672 50.0027 69.1271 49.9086C69.5822 49.8146 69.8683 49.5298 69.8683 48.9019V42.1189L71.2206 41.8418V48.5358C71.2206 49.9417 70.4924 50.8976 69.0881 51.1874C67.6837 51.4773 66.9556 50.8239 66.9556 49.4154V42.7164L68.3859 42.424V42.4214Z" fill="white"/>
<path d="M76.4738 42.7824V43.0951C76.4738 43.9977 76.1878 44.6358 75.5506 45.0553C76.3178 45.1849 76.6169 45.79 76.6169 46.718V47.4324C76.6169 48.7874 75.8757 49.6696 74.4453 49.9645L72.1958 50.4298V41.6384L74.3543 41.196C75.8367 40.8909 76.4738 41.4274 76.4738 42.7824ZM73.6261 42.6019V44.9256L74.1853 44.8112C74.7184 44.7019 75.0435 44.4095 75.0435 43.7053V43.2146C75.0435 42.5867 74.8224 42.3553 74.3153 42.4595L73.6261 42.6019ZM73.6261 46.179V48.879L74.4453 48.7086C74.9265 48.6095 75.1865 48.3425 75.1865 47.6891V46.9239C75.1865 46.1078 74.9135 45.912 74.2633 46.0468L73.6261 46.179Z" fill="white"/>
</g>
<g filter="url(#filter2_d_203_1512)">
<path d="M15.817 39.8689V42.2282C15.817 45.068 14.3607 46.9875 11.552 47.5621C8.74333 48.1341 7.28699 46.807 7.28699 43.9621V34.7182C7.28699 31.8733 8.74333 29.9564 11.552 29.392C14.3607 28.8276 15.817 30.1572 15.817 32.997V34.7207L13.1124 35.2673V33.3656C13.1124 32.097 12.5402 31.7309 11.63 31.914C10.7198 32.097 10.1477 32.6945 10.1477 33.9631V43.5579C10.1477 44.8265 10.7198 45.1672 11.63 44.9816C12.5402 44.796 13.1124 44.224 13.1124 42.9553V40.4181L15.817 39.8689Z" fill="white"/>
<path d="M23.5409 44.9103C23.3848 44.4858 23.2808 44.229 23.2808 42.7849V39.9985C23.2808 38.3536 22.7087 37.8604 21.4084 38.1248L20.4201 38.3257V45.5459L17.5594 46.1307V28.3851L21.8765 27.5182C24.8412 26.9233 26.1155 28.0063 26.1155 30.7419V32.1351C26.1155 33.9579 25.5173 35.2672 24.243 36.1088C25.6734 36.4011 26.1415 37.6494 26.1415 39.4952V42.2282C26.1415 43.09 26.1675 43.7154 26.4536 44.3154L23.5409 44.9103ZM20.4201 30.3453V35.7935L21.5384 35.5672C22.6046 35.3511 23.2548 34.7639 23.2548 33.3452V31.5986C23.2548 30.3326 22.8127 29.8648 21.7985 30.0682L20.4201 30.3453Z" fill="white"/>
<path d="M30.872 33.1698L34.799 32.3766V34.9037L30.872 35.6994V40.8833L35.8132 39.8765V42.4036L28.0114 43.9951V26.2826L35.8132 24.714V27.2411L30.872 28.2377V33.1698Z" fill="white"/>
<path d="M46.8425 40.1562L43.9558 40.746L43.4617 37.6418L39.9508 38.3562L39.4567 41.6638L36.8301 42.2002L39.7428 23.9284L43.9298 23.0869L46.8425 40.1587V40.1562ZM40.3149 35.8825L43.0716 35.3232L41.6932 26.6665L40.3149 35.8825Z" fill="white"/>
<path d="M47.334 22.4005L56.1761 20.6234V23.1429L53.1854 23.7454V38.8647L50.3247 39.4494V24.3225L47.334 24.925V22.403V22.4005Z" fill="white"/>
<path d="M57.1903 24.6505C57.1903 21.831 58.7247 19.909 61.5333 19.3446C64.342 18.7802 65.8764 20.0819 65.8764 22.8963V32.0487C65.8764 34.8656 64.342 36.7876 61.5333 37.3596C58.7247 37.9316 57.1903 36.6351 57.1903 33.8131V24.6479V24.6505ZM60.051 33.4114C60.051 34.6698 60.6231 35.0308 61.5333 34.8452C62.4436 34.6597 63.0157 34.0647 63.0157 32.8088V23.3005C63.0157 22.042 62.4436 21.681 61.5333 21.8641C60.6231 22.0471 60.051 22.642 60.051 23.9005V33.4139V33.4114Z" fill="white"/>
<path d="M73.7042 34.6775C73.5482 34.258 73.4441 34.0012 73.4441 32.5699V29.8089C73.4441 28.1767 72.872 27.6911 71.5717 27.953L70.5835 28.1538V35.3131L67.7228 35.8978V18.3023L72.0398 17.4353C75.0045 16.8404 76.2788 17.9133 76.2788 20.6234V22.0039C76.2788 23.8115 75.6807 25.1106 74.4064 25.9471C75.8367 26.2344 76.3048 27.4699 76.3048 29.303V32.0131C76.3048 32.8673 76.3308 33.4877 76.6169 34.0826L73.7042 34.6775ZM70.5835 20.2395V25.642L71.7017 25.4157C72.768 25.1996 73.4181 24.6174 73.4181 23.209V21.4751C73.4181 20.2192 72.976 19.7565 71.9618 19.9599L70.5835 20.237V20.2395Z" fill="white"/>
</g>
</g>
<defs>
<filter id="filter0_d_203_1512" x="4.28699" y="8.68921" width="39.647" height="22.6436" filterUnits="userSpaceOnUse" color-interpolation-filters="sRGB">
<feFlood flood-opacity="0" result="BackgroundImageFix"/>
<feColorMatrix in="SourceAlpha" type="matrix" values="0 0 0 0 0 0 0 0 0 0 0 0 0 0 0 0 0 0 127 0" result="hardAlpha"/>
<feOffset dx="1" dy="4"/>
<feGaussianBlur stdDeviation="2"/>
<feComposite in2="hardAlpha" operator="out"/>
<feColorMatrix type="matrix" values="0 0 0 0 0 0 0 0 0 0 0 0 0 0 0 0 0 0 0.1 0"/>
<feBlend mode="normal" in2="BackgroundImageFix" result="effect1_dropShadow_203_1512"/>
<feBlend mode="normal" in="SourceGraphic" in2="effect1_dropShadow_203_1512" result="shape"/>
</filter>
<filter id="filter1_d_203_1512" x="54.4789" y="41.1129" width="27.1379" height="20.0842" filterUnits="userSpaceOnUse" color-interpolation-filters="sRGB">
<feFlood flood-opacity="0" result="BackgroundImageFix"/>
<feColorMatrix in="SourceAlpha" type="matrix" values="0 0 0 0 0 0 0 0 0 0 0 0 0 0 0 0 0 0 127 0" result="hardAlpha"/>
<feOffset dx="1" dy="4"/>
<feGaussianBlur stdDeviation="2"/>
<feComposite in2="hardAlpha" operator="out"/>
<feColorMatrix type="matrix" values="0 0 0 0 0 0 0 0 0 0 0 0 0 0 0 0 0 0 0.1 0"/>
<feBlend mode="normal" in2="BackgroundImageFix" result="effect1_dropShadow_203_1512"/>
<feBlend mode="normal" in="SourceGraphic" in2="effect1_dropShadow_203_1512" result="shape"/>
</filter>
<filter id="filter2_d_203_1512" x="4.28699" y="17.276" width="77.33" height="38.4166" filterUnits="userSpaceOnUse" color-interpolation-filters="sRGB">
<feFlood flood-opacity="0" result="BackgroundImageFix"/>
<feColorMatrix in="SourceAlpha" type="matrix" values="0 0 0 0 0 0 0 0 0 0 0 0 0 0 0 0 0 0 127 0" result="hardAlpha"/>
<feOffset dx="1" dy="4"/>
<feGaussianBlur stdDeviation="2"/>
<feComposite in2="hardAlpha" operator="out"/>
<feColorMatrix type="matrix" values="0 0 0 0 0 0 0 0 0 0 0 0 0 0 0 0 0 0 0.1 0"/>
<feBlend mode="normal" in2="BackgroundImageFix" result="effect1_dropShadow_203_1512"/>
<feBlend mode="normal" in="SourceGraphic" in2="effect1_dropShadow_203_1512" result="shape"/>
</filter>
<clipPath id="clip0_203_1512">
<rect width="84" height="62" fill="white"/>
</clipPath>
</defs>
</svg>
